*******************************************************************************
 Like Crazy.2011.DVDSCR.Xvid.AC3-SiNiSTER
*******************************************************************************
-------------------------------------------------------------------------------
 General Information
------------------------------------------------------------------------------- 
http://www.pix2links.com/image/javc.jpg
Format : AVI
Format/Info : Audio Video Interleave
File size : 1.03 GiB
Duration : 1h 29mn
Overall bit rate : 1 643 Kbps
Video
ID : 0
Format : MPEG-4 Visual
Format profile : Advanced Simple@L5
Format settings, BVOP : Yes
Format settings, QPel : No
Format settings, GMC : No warppoints
Format settings, Matrix : Default (H.263)
Muxing mode : Packed bitstream
Codec ID : XVID
Codec ID/Hint : XviD
Duration : 1h 29mn
Bit rate : 1 250 Kbps
Width : 720 pixels
Height : 400 pixels
Display aspect ratio : 16:9
Frame rate : 29.970 fps
Color space : YUV
Chroma subsampling : 4:2:0
Bit depth : 8 bits
Scan type : Progressive
Bits/(Pixel*Frame) : 0.145
Stream size : 801 MiB (76%)
Writing library : XviD 1.2.1 (UTC 2008-12-04)
Audio
ID : 1
Format : AC-3
Format/Info : Audio Coding 3
Mode extension : CM (complete main)
Codec ID : 2000
Duration : 1h 29mn
Bit rate mode : Constant
Bit rate : 384 Kbps
Channel(s) : 6 channels
Channel positions : Front: L C R, Side: L R, LFE
Sampling rate : 48.0 KHz
Bit depth : 16 bits
Stream size : 246 MiB (23%)
Alignment : Aligned on interleaves
Interleave, duration : 64 ms (1.92 video frames)
Interleave, preload duration : 192 ms
Video Source: Like Crazy 2011 SCREENER x264-REQU3ST.....thanks	
Audio Source: Like Crazy 2011 SCREENER x264-REQU3ST.....thanks
Greets:
DarkScene,HDScene,Noir,CrEwSaDe,blackjesus,ViSiON,HDLiTE,UnKnOwN,IMAGiNE,
FLAWL3SS,Rx,ELEKTRI4KA,CiNEDUB,BDK,SAFCuk009,HiVE-CM8..... and everybody else we 
respect.. u know who u are
-------------------------------------------------------------------------------
 Post Information
-------------------------------------------------------------------------------
Encoded by...........: SiNiSTER
 
Have sumthing to offer..looking for suppliers... cammers,cams,screeners, audio
supplier.. and any pre retail DVD/BR any RC...if u can provide any email us at
sinister@hushmail.me
-------------------------------------------------------------------------------
 Release Notes
-------------------------------------------------------------------------------
source was nice.. made a scritp to crop, resize, denoise, slight RGB adjustment
and sharpen.. I let the "Property of" watermark as blurring it just made part 
of the screen unvisible and i would rather watch sum white words than a bigass 
blur mark across the bottom of the screen.. demuxed AC3 and converted to higher bitrate 
and upmixed to 5.1 AC3......enjoy
-------------------------------------------------------------------------------
 ScreenShots
------------------------------------------------------------------------------- 
http://www.pix2links.com/image/JtoKr.png 
http://www.pix2links.com/image/f4u8t.png 
http://www.pix2links.com/image/hkJaR.png 
http://www.pix2links.com/image/h3PA.png 
http://www.pix2links.com/image/V7l9D.jpg
-------------------------------------------------------------------------------
[img]http://leetleech.org/images/33506450373550172140.gif[/img]
-------------------------------------------------------------------------------
Generated with Cool NFO Creator - http://fly.to/coolbeans
-------------------------------------------------------------------------------